<svg width="24" height="24" viewBox="0 0 24 24" fill="none" xmlns="http://www.w3.org/2000/svg">
<g clip-path="url(#clip0_4_6237)">
<path d="M11.9369 3.76978C9.87006 3.76978 8.19454 5.72598 8.19454 8.13907C8.19454 9.81263 9.00046 11.2661 10.1839 12L8.81156 12.636L5.15958 14.3298C4.80678 14.5062 4.6307 14.8054 4.6307 15.2287V19.2508C4.65972 19.7536 4.96144 20.2223 5.45062 20.2303H18.443C19.0015 20.1817 19.284 19.7319 19.2895 19.2508V15.2287C19.2895 14.8054 19.1134 14.5062 18.7607 14.3298L15.2409 12.636L13.7781 11.943C14.913 11.1926 15.6794 9.77055 15.6794 8.13909C15.6793 5.72598 14.0038 3.76978 11.9369 3.76978ZM5.90046 5.30626C5.011 5.34004 4.30608 5.72491 3.77052 6.33817C3.17812 7.07653 2.88932 7.95317 2.88374 8.82525C2.92012 10.1148 3.49712 11.3356 4.52432 11.9742L0.42326 13.88C0.141 13.9858 0 14.2327 0 14.6208V17.8488C0.02204 18.2769 0.24432 18.6367 0.6611 18.6429H3.38678V15.2287C3.43188 14.316 3.86052 13.5782 4.6307 13.2181L7.35564 11.9218C7.56732 11.7983 7.77026 11.6304 7.9643 11.4187C6.84078 9.68521 6.68476 7.60891 7.40884 5.78272C6.9379 5.4945 6.40864 5.30928 5.90046 5.30626ZM18.0722 5.30626C17.4905 5.31844 16.953 5.53264 16.5114 5.83514C17.2157 7.67788 17.0215 9.75545 15.9818 11.3655C16.2111 11.6301 16.4498 11.8331 16.6968 11.9742L19.3161 13.2181C20.1141 13.6557 20.5255 14.4001 20.5334 15.2288V18.6429H23.3381C23.7994 18.6031 23.996 18.2352 24 17.8488V14.6209C24 14.268 23.859 14.0211 23.5767 13.88L19.5281 11.9476C20.5781 11.1734 21.1053 10.0132 21.1155 8.82525C21.0876 7.88501 20.8004 7.01197 20.2287 6.33817C19.6314 5.69019 18.8905 5.31312 18.0722 5.30626Z" fill="white"/>
</g>
<defs>
<clipPath id="clip0_4_6237">
<rect width="24" height="24" fill="white"/>
</clipPath>
</defs>
</svg>
