<svg width="24" height="24" viewBox="0 0 24 24" fill="none" xmlns="http://www.w3.org/2000/svg">
<g clip-path="url(#clip0_4_6242)">
<path d="M12 0C9.6 0 8 1.60669 8 3.21339C8 5.62343 8.8 7.23013 9.6 8.03347V8.83682H14.4V8.03347C15.2 7.23013 16 5.62343 16 3.21339C16 1.60669 14.4 0 12 0ZM8.82 3.28017L12 4.3431L15.18 3.28017L13.22 8.19916L12.38 7.86778L13.62 4.75481L12 5.29707L10.38 4.75481L11.62 7.86778L10.78 8.19916L8.82 3.28017ZM4.655 7.25021C3.485 7.40084 2.425 8.78159 2.425 10.559C2.425 11.5431 2.765 12.4117 3.26 13.0142L3.855 13.7272L2.94 13.8979C2.295 14.0234 1.825 14.3649 1.42 14.9222C1.015 15.4795 0.705 16.2527 0.49 17.1515C0.1 18.7682 0.01 20.7464 0 22.4937H2.14L2.252 24H7.68L7.78 22.4937H9.82C9.82 20.7264 9.8 18.723 9.445 17.0862C9.245 16.1874 8.95 15.4142 8.54 14.8619C8.13 14.3096 7.635 13.9682 6.91 13.8577L5.985 13.7121L6.57 12.9741C7.045 12.3766 7.365 11.518 7.365 10.559C7.365 8.66109 6.185 7.25523 4.895 7.25523L4.655 7.25021ZM18.835 7.25021C17.665 7.40084 16.605 8.78159 16.605 10.559C16.605 11.5431 16.945 12.4117 17.44 13.0142L18.035 13.7272L17.12 13.8979C16.475 14.0234 16.005 14.3649 15.6 14.9222C15.195 15.4795 14.885 16.2527 14.67 17.1515C14.28 18.7682 14.19 20.7464 14.18 22.4937H16.32L16.43 24H21.86L21.96 22.4937H24C24 20.7264 23.98 18.723 23.625 17.0862C23.425 16.1874 23.13 15.4142 22.72 14.8619C22.31 14.3096 21.815 13.9682 21.09 13.8577L20.165 13.7121L20.75 12.9741C21.225 12.3766 21.545 11.518 21.545 10.559C21.545 8.66109 20.365 7.25523 19.075 7.25523L18.835 7.25021ZM9.6 9.69038V10.5941H14.4V9.69038H9.6ZM10.4 11.3975V12.3013H13.6V11.3975H10.4Z" fill="white"/>
</g>
<defs>
<clipPath id="clip0_4_6242">
<rect width="24" height="24" fill="white"/>
</clipPath>
</defs>
</svg>
