<svg width="25" height="24" viewBox="0 0 25 24" fill="none" xmlns="http://www.w3.org/2000/svg">
<g clip-path="url(#clip0_4_5830)">
<path d="M20.5625 1.92188C20.21 1.48126 20.21 0.768755 20.5625 0.332818C20.915 -0.10312 21.485 -0.107807 21.8338 0.332818L24.2338 3.33282C24.4025 3.54376 24.4963 3.82969 24.4963 4.12969C24.4963 4.42969 24.4025 4.71563 24.2338 4.92657L21.8338 7.92657C21.4813 8.36719 20.9113 8.36719 20.5625 7.92657C20.2138 7.48594 20.21 6.77344 20.5625 6.3375L21.425 5.25938L14.9 5.25001C14.4013 5.25001 14 4.74844 14 4.12501C14 3.50157 14.4013 3.00001 14.9 3.00001H21.4287L20.5625 1.92188ZM4.4375 17.6719L3.575 18.75H10.1C10.5988 18.75 11 19.2516 11 19.875C11 20.4984 10.5988 21 10.1 21H3.57125L4.43375 22.0781C4.78625 22.5188 4.78625 23.2313 4.43375 23.6672C4.08125 24.1031 3.51125 24.1078 3.1625 23.6672L0.7625 20.6719C0.59375 20.4609 0.5 20.175 0.5 19.875C0.5 19.575 0.59375 19.2891 0.7625 19.0781L3.1625 16.0781C3.515 15.6375 4.085 15.6375 4.43375 16.0781C4.7825 16.5188 4.78625 17.2313 4.43375 17.6672L4.4375 17.6719ZM4.1 3.00001H13.1713C13.0325 3.33751 12.95 3.71719 12.95 4.12501C12.95 5.47032 13.8238 6.5625 14.9 6.5625H19.3025C19.1525 7.35938 19.325 8.22657 19.82 8.85001C20.5813 9.80157 21.815 9.80157 22.5763 8.85001L23.3 7.94532V18C23.3 19.6547 22.2238 21 20.9 21H11.8288C11.9675 20.6625 12.05 20.2828 12.05 19.875C12.05 18.5297 11.1763 17.4375 10.1 17.4375H5.6975C5.8475 16.6406 5.675 15.7734 5.18 15.15C4.41875 14.1984 3.185 14.1984 2.42375 15.15L1.7 16.0547V6.00001C1.7 4.34532 2.77625 3.00001 4.1 3.00001ZM6.5 6.00001H4.1V9C5.42375 9 6.5 7.65469 6.5 6.00001ZM20.9 15C19.5763 15 18.5 16.3453 18.5 18H20.9V15ZM12.5 16.5C13.4548 16.5 14.3705 16.0259 15.0456 15.182C15.7207 14.3381 16.1 13.1935 16.1 12C16.1 10.8065 15.7207 9.66194 15.0456 8.81802C14.3705 7.97411 13.4548 7.5 12.5 7.5C11.5452 7.5 10.6295 7.97411 9.95442 8.81802C9.27929 9.66194 8.9 10.8065 8.9 12C8.9 13.1935 9.27929 14.3381 9.95442 15.182C10.6295 16.0259 11.5452 16.5 12.5 16.5Z" fill="#F7562A"/>
</g>
<defs>
<clipPath id="clip0_4_5830">
<rect width="24" height="24" fill="white" transform="translate(0.5)"/>
</clipPath>
</defs>
</svg>
