<svg width="24" height="24" viewBox="0 0 24 24" fill="none" xmlns="http://www.w3.org/2000/svg">
<g clip-path="url(#clip0_4_5821)">
<path d="M12.0002 1.33334C9.8905 1.33334 7.82821 1.95893 6.07409 3.131C4.31996 4.30307 2.95279 5.96898 2.14545 7.91805C1.33812 9.86713 1.12688 12.0118 1.53846 14.081C1.95003 16.1501 2.96594 18.0507 4.4577 19.5425C5.94946 21.0342 7.85007 22.0501 9.9192 22.4617C11.9883 22.8733 14.133 22.6621 16.0821 21.8547C18.0312 21.0474 19.6971 19.6802 20.8692 17.9261C22.0412 16.172 22.6668 14.1097 22.6668 12C22.6668 9.17103 21.543 6.45793 19.5426 4.45754C17.5423 2.45715 14.8291 1.33334 12.0002 1.33334ZM16.1335 15.4533C16.0851 15.5266 16.0226 15.5896 15.9498 15.6387C15.8769 15.6878 15.7951 15.722 15.709 15.7393C15.6229 15.7567 15.5342 15.7568 15.448 15.7398C15.3618 15.7227 15.2799 15.6888 15.2068 15.64L11.2735 12.9733V7.16668C11.2735 6.98987 11.3437 6.8203 11.4688 6.69527C11.5938 6.57025 11.7634 6.50001 11.9402 6.50001C12.117 6.50001 12.2865 6.57025 12.4116 6.69527C12.5366 6.8203 12.6068 6.98987 12.6068 7.16668V12.2667L15.9402 14.5267C16.014 14.5746 16.0776 14.6366 16.1273 14.7092C16.177 14.7819 16.2119 14.8636 16.2299 14.9497C16.2478 15.0359 16.2486 15.1247 16.232 15.2112C16.2155 15.2976 16.182 15.3799 16.1335 15.4533ZM15.9002 5.48668C14.9621 4.92129 13.9129 4.56551 12.8245 4.44375C11.736 4.322 10.6341 4.43714 9.59431 4.78129C8.55454 5.12545 7.60153 5.69045 6.80066 6.43756C5.99978 7.18466 5.37 8.09617 4.95453 9.10955C4.53906 10.1229 4.34773 11.2142 4.39366 12.3085C4.4396 13.4028 4.72171 14.4742 5.22065 15.4492C5.71958 16.4242 6.42353 17.2797 7.2842 17.957C8.14487 18.6344 9.14188 19.1175 10.2068 19.3733L10.0002 20.42C8.7788 20.1357 7.63367 19.5898 6.64383 18.8199C5.65399 18.0499 4.84303 17.0744 4.26692 15.9605C3.69081 14.8467 3.36328 13.6211 3.30695 12.3683C3.25061 11.1156 3.46681 9.86552 3.94061 8.70446C4.41441 7.5434 5.13454 6.49898 6.05127 5.64332C6.96801 4.78766 8.05951 4.14113 9.25043 3.74836C10.4414 3.3556 11.7033 3.22596 12.9492 3.36839C14.1951 3.51082 15.3953 3.92193 16.4668 4.57334L15.9002 5.48668Z" fill="#4EC8F5"/>
</g>
<defs>
<clipPath id="clip0_4_5821">
<rect width="24" height="24" fill="white"/>
</clipPath>
</defs>
</svg>
