<svg width="17" height="24" viewBox="0 0 17 24" fill="none" xmlns="http://www.w3.org/2000/svg">
<path d="M3.40909 0C1.80455 0 0.5 1.34531 0.5 3V21C0.5 22.6547 1.80455 24 3.40909 24H13.5909C15.1955 24 16.5 22.6547 16.5 21V3C16.5 1.34531 15.1955 0 13.5909 0H3.40909ZM8.5 18.75C8.88577 18.75 9.25574 18.908 9.52852 19.1893C9.8013 19.4706 9.95455 19.8522 9.95455 20.25C9.95455 20.6478 9.8013 21.0294 9.52852 21.3107C9.25574 21.592 8.88577 21.75 8.5 21.75C8.11423 21.75 7.74426 21.592 7.47148 21.3107C7.1987 21.0294 7.04545 20.6478 7.04545 20.25C7.04545 19.8522 7.1987 19.4706 7.47148 19.1893C7.74426 18.908 8.11423 18.75 8.5 18.75Z" fill="#EDBA28"/>
</svg>
