<svg width="119" height="120" viewBox="0 0 119 120" fill="none" xmlns="http://www.w3.org/2000/svg">
<path d="M59.6078 119.066C92.1003 119.066 118.441 92.4123 118.441 59.5331C118.441 26.6539 92.1003 0 59.6078 0C27.1153 0 0.774902 26.6539 0.774902 59.5331C0.774902 92.4123 27.1153 119.066 59.6078 119.066Z" fill="white"/>
<path opacity="0.1" d="M59.6078 119.066C92.1003 119.066 118.441 92.4123 118.441 59.5331C118.441 26.6539 92.1003 0 59.6078 0C27.1153 0 0.774902 26.6539 0.774902 59.5331C0.774902 92.4123 27.1153 119.066 59.6078 119.066Z" fill="#0050A4"/>
<path opacity="0.8" d="M24.1028 89.0688H26.3753C26.7174 89.0688 26.9946 88.7883 26.9946 88.4422L26.9946 71.9697C26.9946 71.6236 26.7174 71.343 26.3753 71.343H24.1028C23.7607 71.343 23.4835 71.6236 23.4835 71.9697L23.4835 88.4422C23.4835 88.7883 23.7607 89.0688 24.1028 89.0688Z" fill="#93C3DF"/>
<path opacity="0.8" d="M70.3889 89.0688H72.6615C73.0035 89.0688 73.2808 88.7883 73.2808 88.4422V47.1562C73.2808 46.8101 73.0035 46.5296 72.6615 46.5296H70.3889C70.0469 46.5296 69.7696 46.8101 69.7696 47.1562V88.4422C69.7696 88.7883 70.0469 89.0688 70.3889 89.0688Z" fill="#93C3DF"/>
<path opacity="0.8" d="M85.8181 89.0688H88.0907C88.4327 89.0688 88.71 88.7883 88.71 88.4422V47.1562C88.71 46.8101 88.4327 46.5296 88.0907 46.5296H85.8181C85.4761 46.5296 85.1988 46.8101 85.1988 47.1562V88.4422C85.1988 88.7883 85.4761 89.0688 85.8181 89.0688Z" fill="#93C3DF"/>
<path opacity="0.8" d="M39.5315 89.0688H41.8041C42.1461 89.0688 42.4233 88.7883 42.4233 88.4422L42.4233 57.9813C42.4233 57.6352 42.1461 57.3547 41.8041 57.3547H39.5315C39.1895 57.3547 38.9122 57.6352 38.9122 57.9813V88.4422C38.9122 88.7883 39.1895 89.0688 39.5315 89.0688Z" fill="#93C3DF"/>
<path opacity="0.8" d="M54.9602 89.0688H57.2328C57.5748 89.0688 57.8521 88.7883 57.8521 88.4422V63.8437C57.8521 63.4976 57.5748 63.2171 57.2328 63.2171H54.9602C54.6182 63.2171 54.3409 63.4976 54.3409 63.8437V88.4422C54.3409 88.7883 54.6182 89.0688 54.9602 89.0688Z" fill="#93C3DF"/>
<path opacity="0.5" d="M27.614 89.0684H29.8866C30.2286 89.0684 30.5059 88.7878 30.5059 88.4417L30.5059 39.8424C30.5059 39.4963 30.2286 39.2157 29.8866 39.2157H27.614C27.272 39.2157 26.9947 39.4963 26.9947 39.8424L26.9947 88.4417C26.9947 88.7878 27.272 89.0684 27.614 89.0684Z" fill="#93C3DF"/>
<path opacity="0.5" d="M89.3288 89.0684H91.6014C91.9434 89.0684 92.2207 88.7878 92.2207 88.4417V39.8424C92.2207 39.4963 91.9434 39.2157 91.6014 39.2157H89.3288C88.9868 39.2157 88.7095 39.4963 88.7095 39.8424V88.4417C88.7095 88.7878 88.9868 89.0684 89.3288 89.0684Z" fill="#93C3DF"/>
<path opacity="0.5" d="M73.9001 89.0688H76.1727C76.5147 89.0688 76.792 88.7883 76.792 88.4422V57.9813C76.792 57.6352 76.5147 57.3547 76.1727 57.3547H73.9001C73.5581 57.3547 73.2808 57.6352 73.2808 57.9813V88.4422C73.2808 88.7883 73.5581 89.0688 73.9001 89.0688Z" fill="#93C3DF"/>
<path opacity="0.5" d="M58.4719 89.0688H60.7445C61.0865 89.0688 61.3638 88.7883 61.3638 88.4422V73.0436C61.3638 72.6975 61.0865 72.417 60.7445 72.417H58.4719C58.1299 72.417 57.8526 72.6975 57.8526 73.0436V88.4422C57.8526 88.7883 58.1299 89.0688 58.4719 89.0688Z" fill="#93C3DF"/>
<path opacity="0.5" d="M43.0427 89.0688H45.3153C45.6573 89.0688 45.9346 88.7883 45.9346 88.4422L45.9346 54.2668C45.9346 53.9207 45.6573 53.6401 45.3153 53.6401H43.0427C42.7007 53.6401 42.4234 53.9207 42.4234 54.2668L42.4234 88.4422C42.4234 88.7883 42.7007 89.0688 43.0427 89.0688Z" fill="#93C3DF"/>
<path opacity="0.2" d="M92.8405 89.0684H95.1131C95.4552 89.0684 95.7324 88.7878 95.7324 88.4417V54.034C95.7324 53.6879 95.4552 53.4073 95.1131 53.4073H92.8405C92.4985 53.4073 92.2213 53.6879 92.2213 54.034V88.4417C92.2213 88.7878 92.4985 89.0684 92.8405 89.0684Z" fill="#93C3DF"/>
<path opacity="0.2" d="M77.4119 89.0684H79.6844C80.0264 89.0684 80.3037 88.7878 80.3037 88.4417V67.3259C80.3037 66.9798 80.0264 66.6993 79.6844 66.6993H77.4119C77.0698 66.6993 76.7926 66.9798 76.7926 67.3259V88.4417C76.7926 88.7878 77.0698 89.0684 77.4119 89.0684Z" fill="#93C3DF"/>
<path opacity="0.2" d="M61.9831 89.0688H64.2557C64.5977 89.0688 64.875 88.7883 64.875 88.4422V57.7495C64.875 57.4034 64.5977 57.1228 64.2557 57.1228H61.9831C61.6411 57.1228 61.3638 57.4034 61.3638 57.7495L61.3638 88.4422C61.3638 88.7883 61.6411 89.0688 61.9831 89.0688Z" fill="#93C3DF"/>
<path opacity="0.2" d="M46.5539 89.0688H48.8265C49.1685 89.0688 49.4458 88.7883 49.4458 88.4422L49.4458 57.7495C49.4458 57.4034 49.1685 57.1228 48.8265 57.1228H46.5539C46.2119 57.1228 45.9346 57.4034 45.9346 57.7495L45.9346 88.4422C45.9346 88.7883 46.2119 89.0688 46.5539 89.0688Z" fill="#93C3DF"/>
<path opacity="0.2" d="M31.1252 89.0688H33.3978C33.7398 89.0688 34.0171 88.7883 34.0171 88.4422L34.0171 42.0193C34.0171 41.6732 33.7398 41.3926 33.3978 41.3926H31.1252C30.7832 41.3926 30.5059 41.6732 30.5059 42.0193L30.5059 88.4422C30.5059 88.7883 30.7832 89.0688 31.1252 89.0688Z" fill="#93C3DF"/>
<path d="M102.669 89.0859H17.4458C17.323 89.0859 17.2053 89.0365 17.1185 88.9487C17.0317 88.8609 16.9829 88.7417 16.9829 88.6175V32.9034C16.9829 32.7792 17.0317 32.6601 17.1185 32.5722C17.2053 32.4844 17.323 32.4351 17.4458 32.4351C17.5685 32.4351 17.6862 32.4844 17.773 32.5722C17.8598 32.6601 17.9086 32.7792 17.9086 32.9034V88.1492H102.669C102.792 88.1492 102.909 88.1985 102.996 88.2864C103.083 88.3742 103.132 88.4933 103.132 88.6175C103.132 88.7417 103.083 88.8609 102.996 88.9487C102.909 89.0365 102.792 89.0859 102.669 89.0859Z" fill="#292A2E"/>
</svg>
