<svg width="115" height="117" viewBox="0 0 115 117" fill="none" xmlns="http://www.w3.org/2000/svg">
<path d="M57.7794 116.609C89.3816 116.609 115 90.6857 115 58.7075C115 26.7292 89.3816 0.805664 57.7794 0.805664C26.1772 0.805664 0.558594 26.7292 0.558594 58.7075C0.558594 90.6857 26.1772 116.609 57.7794 116.609Z" fill="white"/>
<path opacity="0.1" d="M57.7794 116.609C89.3816 116.609 115 90.6857 115 58.7075C115 26.7292 89.3816 0.805664 57.7794 0.805664C26.1772 0.805664 0.558594 26.7292 0.558594 58.7075C0.558594 90.6857 26.1772 116.609 57.7794 116.609Z" fill="#0050A4"/>
<path d="M23.5894 81.6643L90.0336 92.6672C93.5391 93.2477 96.8459 90.8427 97.4196 87.2954L104.546 43.2319C105.119 39.6846 102.743 36.3385 99.2372 35.758L32.793 24.7551C29.2875 24.1746 25.9807 26.5796 25.407 30.1268L18.2809 74.1904C17.7072 77.7376 20.0839 81.0838 23.5894 81.6643Z" fill="#262626"/>
<path d="M43.1596 34.6049L34.8633 33.2307C33.4292 32.9931 32.0764 33.977 31.8418 35.4282L31.0513 40.3175C30.8167 41.7687 31.7891 43.1377 33.2232 43.3753L41.5195 44.7495C42.9536 44.9871 44.3064 44.0032 44.541 42.552L45.3315 37.6628C45.5661 36.2115 44.5937 34.8425 43.1596 34.6049Z" fill="white"/>
<path d="M45.5742 36.1633L45.1891 38.5439L40.619 37.787L40.0024 36.9187L40.4486 34.1587L44.6443 34.8537C44.7904 34.8779 44.9303 34.931 45.0561 35.0099C45.1818 35.0887 45.291 35.1919 45.3774 35.3136C45.4637 35.4352 45.5255 35.5728 45.5593 35.7186C45.5931 35.8644 45.5981 36.0155 45.5742 36.1633Z" fill="#2EBD89"/>
<path d="M44.681 41.6768L44.2959 44.0574C44.272 44.2054 44.2195 44.3471 44.1414 44.4745C44.0633 44.602 43.9612 44.7125 43.8408 44.7999C43.7204 44.8873 43.5842 44.9498 43.4399 44.9839C43.2956 45.0179 43.1461 45.0229 42.9999 44.9983L38.8042 44.3038L39.2629 41.4688L40.1085 40.9199L44.681 41.6768Z" fill="#2EBD89"/>
<path d="M37.4986 33.6707L37.052 36.4307L36.2679 37.0667L31.6978 36.3099L32.0829 33.9292C32.1067 33.7815 32.1591 33.6399 32.237 33.5126C32.3149 33.3853 32.4168 33.2748 32.537 33.1874C32.6571 33.0999 32.7931 33.0373 32.9371 33.0031C33.0812 32.9689 33.2305 32.9637 33.3765 32.9878L37.4986 33.6707Z" fill="#2EBD89"/>
<path d="M36.3167 40.9809L35.8585 43.8154L31.7364 43.133C31.5902 43.1087 31.4502 43.0555 31.3243 42.9764C31.1985 42.8974 31.0893 42.794 31.0029 42.6722C30.9166 42.5505 30.8548 42.4126 30.8211 42.2667C30.7874 42.1207 30.7824 41.9695 30.8065 41.8216L31.1916 39.4409L35.7613 40.1997L36.3167 40.9809Z" fill="#2EBD89"/>
<path d="M92.0593 81.3971C91.8033 82.9798 90.9364 84.3948 89.6494 85.3307C88.3624 86.2667 86.7607 86.647 85.1966 86.3879C83.6326 86.1289 82.2342 85.2517 81.3093 83.9494C80.3843 82.6471 80.0085 81.0263 80.2645 79.4436C80.4094 78.5543 80.7507 77.7094 81.2631 76.9721C81.7755 76.2348 82.4458 75.624 83.2239 75.1853C84.2008 74.6143 85.3182 74.3363 86.4454 74.3839C87.5726 74.4315 88.6632 74.8026 89.5897 75.454C90.5162 76.1054 91.2404 77.0102 91.6777 78.0626C92.115 79.1149 92.2474 80.2715 92.0593 81.3971Z" fill="white"/>
<path d="M79.5164 84.0684C78.5365 84.6387 77.4168 84.916 76.2874 84.8681C75.158 84.8203 74.0652 84.4493 73.1358 83.7981C72.2064 83.147 71.4785 82.2425 71.0368 81.1897C70.595 80.1368 70.4574 78.9787 70.64 77.8499C70.8225 76.721 71.3178 75.6677 72.0682 74.8123C72.8186 73.9568 73.7934 73.3343 74.8794 73.0169C75.9654 72.6996 77.1181 72.7004 78.2037 73.0194C79.2893 73.3383 80.2631 73.9623 81.0123 74.8189C79.5048 75.7181 78.6462 77.2609 78.3444 79.1254C78.0427 80.9899 78.3588 82.8043 79.5164 84.0684Z" fill="#2EBD89"/>
<path d="M42.1466 53.2589L30.3866 51.3115C29.7875 51.2123 29.2223 51.6233 29.1242 52.2296C29.0262 52.8358 29.4324 53.4077 30.0315 53.507L41.7916 55.4544C42.3907 55.5536 42.9559 55.1425 43.0539 54.5363C43.152 53.93 42.7458 53.3581 42.1466 53.2589Z" fill="white"/>
<path d="M59.4659 56.1268L47.7059 54.1794C47.1068 54.0802 46.5416 54.4912 46.4436 55.0975C46.3455 55.7038 46.7517 56.2757 47.3509 56.3749L59.1109 58.3223C59.71 58.4215 60.2752 58.0105 60.3732 57.4042C60.4713 56.7979 60.0651 56.226 59.4659 56.1268Z" fill="white"/>
<path d="M76.7858 58.995L65.0257 57.0476C64.4266 56.9483 63.8614 57.3594 63.7634 57.9657C63.6653 58.5719 64.0716 59.1438 64.6707 59.243L76.4307 61.1905C77.0299 61.2897 77.595 60.8786 77.6931 60.2724C77.7911 59.6661 77.3849 59.0942 76.7858 58.995Z" fill="white"/>
<path d="M94.1051 61.8629L82.3451 59.9155C81.7459 59.8163 81.1808 60.2273 81.0827 60.8336C80.9847 61.4398 81.3909 62.0118 81.99 62.111L93.7501 64.0584C94.3492 64.1576 94.9144 63.7466 95.0124 63.1403C95.1105 62.534 94.7043 61.9621 94.1051 61.8629Z" fill="white"/>
</svg>
