<svg width="118" height="120" viewBox="0 0 118 120" fill="none" xmlns="http://www.w3.org/2000/svg">
<path d="M58.8329 119.44C91.3254 119.44 117.666 92.7866 117.666 59.9074C117.666 27.0281 91.3254 0.374268 58.8329 0.374268C26.3404 0.374268 0 27.0281 0 59.9074C0 92.7866 26.3404 119.44 58.8329 119.44Z" fill="white"/>
<path opacity="0.1" d="M58.8329 119.44C91.3254 119.44 117.666 92.7866 117.666 59.9074C117.666 27.0281 91.3254 0.374268 58.8329 0.374268C26.3404 0.374268 0 27.0281 0 59.9074C0 92.7866 26.3404 119.44 58.8329 119.44Z" fill="#0050A4"/>
<path d="M84.7781 54.7761H24.0438C23.5013 54.7761 22.9809 54.9942 22.5972 55.3824C22.2136 55.7707 21.998 56.2972 21.998 56.8462L25.9785 101.527C25.9785 102.076 26.1941 102.603 26.5777 102.991C26.9614 103.379 27.4817 103.597 28.0243 103.597H84.7781C85.3207 103.597 85.841 103.379 86.2247 102.991C86.6083 102.603 86.8239 102.076 86.8239 101.527V56.8462C86.8239 56.2972 86.6083 55.7707 86.2247 55.3824C85.841 54.9942 85.3207 54.7761 84.7781 54.7761Z" fill="#292A2E"/>
<path d="M89.4154 32.3232L86.8642 90.5903C86.8468 90.9836 86.6758 91.3538 86.3888 91.6195C86.1018 91.8853 85.7222 92.0248 85.3336 92.0075L32.9083 89.6569C32.5197 89.6394 32.1539 89.4664 31.8913 89.1761C31.6286 88.8857 31.4907 88.5017 31.5078 88.1085L34.5357 18.9624C34.5441 18.7677 34.5904 18.5765 34.6719 18.3999C34.7534 18.2232 34.8685 18.0646 35.0106 17.933C35.1527 17.8014 35.319 17.6994 35.5001 17.6328C35.6812 17.5663 35.8734 17.5365 36.0659 17.5452L77.8679 19.4186L77.3921 30.2802C77.3834 30.4773 77.4132 30.6742 77.4798 30.8596C77.5463 31.045 77.6483 31.2153 77.7799 31.3608C77.9115 31.5063 78.0702 31.6242 78.2468 31.7077C78.4234 31.7912 78.6146 31.8386 78.8093 31.8474L89.4154 32.3232Z" fill="#558FFF"/>
<path opacity="0.4" d="M89.4154 32.3232L86.8642 90.5903C86.8468 90.9836 86.6758 91.3538 86.3888 91.6195C86.1018 91.8853 85.7222 92.0248 85.3336 92.0075L32.9083 89.6569C32.5197 89.6394 32.1539 89.4664 31.8913 89.1761C31.6286 88.8857 31.4907 88.5017 31.5078 88.1085L34.5357 18.9624C34.5441 18.7677 34.5904 18.5765 34.6719 18.3999C34.7534 18.2232 34.8685 18.0646 35.0106 17.933C35.1527 17.8014 35.319 17.6994 35.5001 17.6328C35.6812 17.5663 35.8734 17.5365 36.0659 17.5452L77.8679 19.4186L77.3819 30.5107C77.3745 30.6779 77.3998 30.845 77.4563 31.0024C77.5128 31.1598 77.5994 31.3043 77.7112 31.4278C77.8229 31.5513 77.9577 31.6512 78.1077 31.7219C78.2577 31.7926 78.42 31.8327 78.5853 31.8398L89.4154 32.3232Z" fill="white"/>
<path d="M40.9458 36.7305L82.2225 38.5809L40.9458 36.7305Z" fill="white"/>
<path d="M82.2231 38.8151H82.2125L40.9358 36.9647C40.8744 36.9619 40.8167 36.9347 40.7752 36.8888C40.7337 36.843 40.7119 36.7823 40.7146 36.7202C40.7173 36.6581 40.7443 36.5996 40.7896 36.5576C40.8349 36.5157 40.8948 36.4936 40.9562 36.4963L82.2328 38.3468C82.2942 38.3481 82.3526 38.374 82.3951 38.4189C82.4376 38.4637 82.4607 38.5238 82.4594 38.5859C82.4581 38.648 82.4325 38.7071 82.3882 38.7501C82.3439 38.793 82.2845 38.8164 82.2231 38.8151Z" fill="#FAFAFA"/>
<path d="M40.6641 43.1689L81.9407 45.0199L40.6641 43.1689Z" fill="white"/>
<path d="M81.9414 45.2539H81.9312L40.6541 43.4034C40.6237 43.4021 40.5938 43.3947 40.5663 43.3817C40.5387 43.3687 40.5139 43.3503 40.4934 43.3276C40.4728 43.3049 40.4569 43.2783 40.4465 43.2494C40.4361 43.2204 40.4315 43.1897 40.4329 43.159C40.4379 43.0978 40.4655 43.0407 40.5104 42.9993C40.5552 42.9579 40.6138 42.9351 40.6745 42.9356L81.9511 44.786C82.0125 44.7873 82.0708 44.8132 82.1133 44.8581C82.1558 44.9029 82.179 44.963 82.1777 45.0251C82.1764 45.0872 82.1508 45.1463 82.1065 45.1893C82.0621 45.2322 82.0028 45.2552 81.9414 45.2539Z" fill="#FAFAFA"/>
<path d="M40.3823 49.6074L81.659 51.4583L40.3823 49.6074Z" fill="white"/>
<path d="M81.6597 51.6924H81.649L40.3724 49.8419C40.342 49.8406 40.3121 49.8333 40.2845 49.8203C40.257 49.8072 40.2322 49.7888 40.2116 49.7661C40.1911 49.7434 40.1752 49.7168 40.1648 49.6879C40.1544 49.659 40.1497 49.6282 40.1511 49.5975C40.1553 49.5359 40.1827 49.4784 40.2277 49.4368C40.2727 49.3952 40.3318 49.3727 40.3927 49.3741L81.6694 51.2245C81.7308 51.2259 81.7891 51.2518 81.8316 51.2966C81.8741 51.3415 81.8972 51.4015 81.8959 51.4636C81.8946 51.5257 81.869 51.5848 81.8247 51.6278C81.7804 51.6708 81.721 51.6942 81.6597 51.6929V51.6924Z" fill="#FAFAFA"/>
<path d="M40.1001 56.0459L81.3768 57.8968L40.1001 56.0459Z" fill="white"/>
<path d="M81.3775 58.1309H81.3683L40.0916 56.2804C40.0613 56.2791 40.0315 56.2716 40.0039 56.2586C39.9764 56.2456 39.9517 56.2272 39.9312 56.2045C39.9107 56.1818 39.8948 56.1552 39.8845 56.1263C39.8741 56.0974 39.8695 56.0667 39.8708 56.036C39.875 55.9745 39.9023 55.917 39.9472 55.8754C39.9921 55.8338 40.0511 55.8113 40.112 55.8125L81.3886 57.663C81.45 57.6643 81.5084 57.6903 81.5509 57.7351C81.5933 57.7799 81.6165 57.84 81.6152 57.9021C81.6139 57.9642 81.5883 58.0233 81.544 58.0663C81.4997 58.1093 81.4403 58.1327 81.3789 58.1314L81.3775 58.1309Z" fill="#FAFAFA"/>
<path d="M39.8184 62.4846L81.095 64.3351L39.8184 62.4846Z" fill="white"/>
<path d="M81.0952 64.5693H81.085L39.8084 62.7184C39.7471 62.7157 39.6893 62.6885 39.6478 62.6427C39.6063 62.597 39.5845 62.5364 39.5871 62.4744C39.5918 62.413 39.6194 62.3557 39.6643 62.3142C39.7091 62.2726 39.7679 62.2498 39.8287 62.2505L81.1054 64.1014C81.1668 64.1028 81.2251 64.1288 81.2675 64.1737C81.31 64.2185 81.3331 64.2787 81.3317 64.3408C81.3304 64.4029 81.3047 64.4619 81.2603 64.5049C81.216 64.5478 81.1566 64.5707 81.0952 64.5693Z" fill="#FAFAFA"/>
<path d="M39.5366 68.9233L58.0672 69.7545L39.5366 68.9233Z" fill="white"/>
<path d="M58.0678 69.9887H58.0572L39.5271 69.1571C39.4658 69.1544 39.4081 69.1272 39.3666 69.0814C39.3251 69.0356 39.3032 68.9751 39.3059 68.913C39.3095 68.8512 39.3367 68.7932 39.3818 68.7514C39.4269 68.7096 39.4863 68.6873 39.5475 68.6891L58.078 69.5202C58.1394 69.5215 58.1977 69.5474 58.2402 69.5923C58.2827 69.6371 58.3059 69.6972 58.3046 69.7594C58.3033 69.8215 58.2777 69.8805 58.2334 69.9236C58.189 69.9666 58.1292 69.99 58.0678 69.9887Z" fill="#FAFAFA"/>
<path opacity="0.7" d="M89.4155 32.3231L78.8742 31.8505C78.6708 31.8415 78.4711 31.7921 78.2866 31.705C78.102 31.6179 77.9363 31.4949 77.7987 31.343C77.6612 31.1911 77.5546 31.0132 77.485 30.8196C77.4154 30.626 77.3842 30.4204 77.3931 30.2145L77.8661 19.4189L89.4155 32.3231Z" fill="#93C3DF"/>
<path d="M81.1474 35.9671L85.7328 94.1064C85.7482 94.3007 85.7256 94.4961 85.6664 94.6816C85.6071 94.8671 85.5123 95.0389 85.3874 95.1873C85.2625 95.3357 85.1099 95.4577 84.9384 95.5465C84.7669 95.6352 84.5798 95.6889 84.3878 95.7044L32.075 99.929C31.883 99.9445 31.6898 99.9217 31.5065 99.8617C31.3232 99.8017 31.1533 99.7057 31.0067 99.5793C30.86 99.4528 30.7394 99.2984 30.6518 99.1248C30.5641 98.9512 30.5111 98.7618 30.4958 98.5675L25.056 29.5741C25.0406 29.3798 25.0632 29.1843 25.1225 28.9988C25.1818 28.8134 25.2766 28.6416 25.4016 28.4932C25.5265 28.3448 25.6791 28.2228 25.8507 28.1342C26.0223 28.0455 26.2094 27.992 26.4014 27.9765L68.1113 24.6077L68.9662 35.4454C68.9976 35.8424 69.1836 36.2106 69.4832 36.4689C69.7828 36.7272 70.1716 36.8545 70.564 36.8228L81.1474 35.9671Z" fill="#558FFF"/>
<path opacity="0.73" d="M81.1474 35.9671L85.7328 94.1064C85.7482 94.3007 85.7256 94.4961 85.6664 94.6816C85.6071 94.8671 85.5123 95.0389 85.3874 95.1873C85.2625 95.3357 85.1099 95.4577 84.9384 95.5465C84.7669 95.6352 84.5798 95.6889 84.3878 95.7044L32.075 99.929C31.883 99.9445 31.6898 99.9217 31.5065 99.8617C31.3232 99.8017 31.1533 99.7057 31.0067 99.5793C30.86 99.4528 30.7394 99.2984 30.6518 99.1248C30.5641 98.9512 30.5111 98.7618 30.4958 98.5675L25.056 29.5741C25.0406 29.3798 25.0632 29.1843 25.1225 28.9988C25.1818 28.8134 25.2766 28.6416 25.4016 28.4932C25.5265 28.3448 25.6791 28.2228 25.8507 28.1342C26.0223 28.0455 26.2094 27.992 26.4014 27.9765L68.1113 24.6077L68.9667 35.4491C68.9981 35.8451 69.1836 36.2123 69.4824 36.47C69.7812 36.7277 70.1689 36.8547 70.5603 36.8233L81.1474 35.9671Z" fill="white"/>
<path d="M33.5879 46.4029L74.7743 43.0776L33.5879 46.4029Z" fill="white"/>
<path d="M33.5883 46.6371C33.5269 46.6395 33.4671 46.6172 33.422 46.575C33.3769 46.5328 33.3502 46.4742 33.3478 46.4121C33.3454 46.35 33.3675 46.2895 33.4092 46.2438C33.4509 46.1982 33.5089 46.1712 33.5702 46.1688L74.7566 42.8434C74.8176 42.8398 74.8775 42.8601 74.924 42.9002C74.9704 42.9402 74.9997 42.997 75.0056 43.0584C75.0081 43.0891 75.0045 43.1199 74.9951 43.1492C74.9857 43.1784 74.9707 43.2055 74.951 43.2289C74.9313 43.2523 74.9072 43.2716 74.8801 43.2856C74.853 43.2995 74.8235 43.308 74.7932 43.3104L33.6068 46.6357L33.5883 46.6371Z" fill="#FAFAFA"/>
<path d="M34.0947 52.8275L75.2811 49.5022L34.0947 52.8275Z" fill="white"/>
<path d="M34.0946 53.0616C34.0333 53.064 33.9734 53.0416 33.9283 52.9994C33.8833 52.9572 33.8566 52.8986 33.8542 52.8365C33.8518 52.7744 33.8739 52.7139 33.9156 52.6682C33.9573 52.6226 34.0152 52.5956 34.0766 52.5932L75.263 49.2679C75.324 49.2637 75.3842 49.2839 75.4308 49.324C75.4773 49.3642 75.5065 49.4212 75.512 49.4829C75.5144 49.5135 75.5108 49.5444 75.5014 49.5736C75.4921 49.6029 75.4771 49.63 75.4574 49.6534C75.4376 49.6768 75.4135 49.696 75.3865 49.71C75.3594 49.724 75.3299 49.7324 75.2996 49.7348L34.1136 53.0602L34.0946 53.0616Z" fill="#FAFAFA"/>
<path d="M34.6016 59.2521L75.788 55.9268L34.6016 59.2521Z" fill="white"/>
<path d="M34.6015 59.4866C34.5401 59.489 34.4803 59.4666 34.4352 59.4244C34.3901 59.3822 34.3634 59.3236 34.361 59.2615C34.3586 59.1994 34.3807 59.1389 34.4224 59.0932C34.4641 59.0476 34.522 59.0206 34.5834 59.0182L75.7698 55.6929C75.8312 55.688 75.892 55.7079 75.9388 55.7484C75.9856 55.7888 76.0147 55.8464 76.0195 55.9086C76.0244 55.9707 76.0046 56.0322 75.9647 56.0796C75.9247 56.1269 75.8678 56.1563 75.8064 56.1612L34.62 59.4866H34.6015Z" fill="#FAFAFA"/>
<path d="M35.1079 65.6764L76.2939 62.3511L35.1079 65.6764Z" fill="white"/>
<path d="M35.1078 65.9104C35.0464 65.9128 34.9866 65.8904 34.9415 65.8482C34.8964 65.806 34.8698 65.7474 34.8674 65.6853C34.865 65.6232 34.8871 65.5627 34.9288 65.5171C34.9705 65.4714 35.0284 65.4444 35.0898 65.442L76.2762 62.1167C76.3375 62.1118 76.3983 62.1318 76.4452 62.1722C76.492 62.2127 76.521 62.2703 76.5259 62.3324C76.5307 62.3945 76.511 62.456 76.471 62.5034C76.431 62.5508 76.3741 62.5801 76.3127 62.5851L35.1263 65.9104H35.1078Z" fill="#FAFAFA"/>
<path d="M35.6143 72.101L76.8007 68.7756L35.6143 72.101Z" fill="white"/>
<path d="M35.6146 72.3349C35.5843 72.3361 35.5539 72.3313 35.5254 72.3206C35.4969 72.3099 35.4707 72.2937 35.4484 72.2728C35.426 72.2519 35.408 72.2268 35.3953 72.1988C35.3825 72.1709 35.3754 72.1406 35.3742 72.1099C35.373 72.0791 35.3778 72.0485 35.3884 72.0196C35.3989 71.9907 35.4149 71.9642 35.4356 71.9416C35.4563 71.919 35.4811 71.9008 35.5087 71.8879C35.5363 71.875 35.5662 71.8678 35.5966 71.8666L76.783 68.5413C76.8134 68.5388 76.844 68.5425 76.873 68.552C76.902 68.5615 76.9288 68.5767 76.952 68.5968C76.9752 68.6168 76.9943 68.6413 77.0081 68.6688C77.0219 68.6962 77.0303 68.7262 77.0327 68.7569C77.0351 68.7877 77.0315 68.8186 77.0221 68.848C77.0127 68.8773 76.9977 68.9045 76.9779 68.9279C76.9581 68.9514 76.9339 68.9707 76.9067 68.9847C76.8796 68.9987 76.85 69.0072 76.8196 69.0096L35.6332 72.3349H35.6146Z" fill="#FAFAFA"/>
<path d="M36.1211 78.5251L54.6114 77.032L36.1211 78.5251Z" fill="white"/>
<path d="M36.1215 78.7593C36.0601 78.7617 36.0003 78.7394 35.9552 78.6972C35.9101 78.655 35.8834 78.5964 35.881 78.5343C35.8786 78.4721 35.9007 78.4116 35.9424 78.366C35.9841 78.3203 36.0421 78.2934 36.1034 78.2909L54.5937 76.7974C54.6551 76.7925 54.7159 76.8124 54.7627 76.8528C54.8095 76.8933 54.8386 76.9509 54.8434 77.013C54.8482 77.0751 54.8285 77.1367 54.7885 77.184C54.7486 77.2314 54.6916 77.2608 54.6303 77.2657L36.14 78.7593H36.1215Z" fill="#FAFAFA"/>
<path opacity="0.3" d="M81.1476 35.9671L70.6303 36.8167C70.2209 36.8493 69.8155 36.7161 69.503 36.4464C69.1906 36.1767 68.9968 35.7926 68.964 35.3784L68.1143 24.6062L81.1476 35.9671Z" fill="white"/>
<path d="M75.1882 61.5223V63.0679C75.1882 63.6169 74.9726 64.1435 74.589 64.5317C74.2053 64.9199 73.685 65.138 73.1424 65.138H31.9782C31.4768 65.138 30.9928 65.3243 30.6181 65.6615C30.2435 65.9987 30.0043 66.4634 29.9458 66.9674L25.9908 101.288C25.9574 101.578 25.985 101.872 26.0718 102.15C26.1587 102.429 26.3028 102.686 26.4947 102.904C26.6866 103.122 26.922 103.296 27.1853 103.416C27.4487 103.536 27.7341 103.597 28.0227 103.597H88.8815C89.3885 103.598 89.8776 103.407 90.2539 103.064C90.6302 102.72 90.8669 102.247 90.918 101.736L94.9346 61.7312C94.9635 61.4431 94.9324 61.152 94.8432 60.8769C94.7541 60.6017 94.6088 60.3485 94.4168 60.1337C94.2249 59.9189 93.9905 59.7473 93.7289 59.6299C93.4673 59.5125 93.1843 59.4519 92.8981 59.4521H77.234C76.9653 59.4521 76.6992 59.5056 76.451 59.6096C76.2028 59.7136 75.9772 59.8661 75.7872 60.0583C75.5973 60.2506 75.4466 60.4788 75.3438 60.73C75.241 60.9812 75.1881 61.2504 75.1882 61.5223Z" fill="#2EBD89"/>
</svg>
