<svg width="130" height="131" viewBox="0 0 130 131" fill="none" xmlns="http://www.w3.org/2000/svg">
<path d="M64.9084 131C100.534 131 129.414 101.776 129.414 65.7264C129.414 29.6767 100.534 0.452637 64.9084 0.452637C29.2827 0.452637 0.402344 29.6767 0.402344 65.7264C0.402344 101.776 29.2827 131 64.9084 131Z" fill="white"/>
<path opacity="0.1" d="M64.9084 131C100.534 131 129.414 101.776 129.414 65.7264C129.414 29.6767 100.534 0.452637 64.9084 0.452637C29.2827 0.452637 0.402344 29.6767 0.402344 65.7264C0.402344 101.776 29.2827 131 64.9084 131Z" fill="#0050A4"/>
<path d="M25.3065 47.7496C25.094 47.7496 24.8902 47.6641 24.7398 47.5121C24.5895 47.3601 24.505 47.1539 24.5049 46.9388V31.9238C24.5072 29.873 25.3134 27.9069 26.7465 26.4567C28.1796 25.0066 30.1226 24.1908 32.1493 24.1885H46.9927C47.202 24.1936 47.4009 24.2812 47.5471 24.4328C47.6933 24.5843 47.7752 24.7877 47.7752 24.9994C47.7752 25.2112 47.6933 25.4146 47.5471 25.5661C47.4009 25.7176 47.202 25.8053 46.9927 25.8104H32.1493C30.5475 25.8123 29.0119 26.4569 27.8793 27.603C26.7467 28.7491 26.1096 30.303 26.1077 31.9238V46.9388C26.1077 47.1538 26.0233 47.3601 25.8731 47.5121C25.7228 47.6641 25.519 47.7496 25.3065 47.7496Z" fill="#292A2E"/>
<path d="M46.992 109.42H32.1485C30.1218 109.418 28.1788 108.602 26.7457 107.152C25.3126 105.702 24.5065 103.736 24.5041 101.685V86.6703C24.5016 86.5621 24.5204 86.4546 24.5595 86.3539C24.5987 86.2532 24.6573 86.1615 24.7319 86.0841C24.8066 86.0067 24.8958 85.9452 24.9943 85.9032C25.0928 85.8612 25.1987 85.8396 25.3056 85.8396C25.4125 85.8396 25.5183 85.8612 25.6168 85.9032C25.7153 85.9452 25.8045 86.0067 25.8792 86.0841C25.9538 86.1615 26.0125 86.2532 26.0516 86.3539C26.0907 86.4546 26.1095 86.5621 26.107 86.6703V101.685C26.1088 103.306 26.7459 104.86 27.8785 106.006C29.0111 107.152 30.5468 107.796 32.1485 107.798H46.992C47.2012 107.803 47.4002 107.891 47.5464 108.043C47.6926 108.194 47.7744 108.397 47.7744 108.609C47.7744 108.821 47.6926 109.024 47.5464 109.176C47.4002 109.327 47.2012 109.415 46.992 109.42Z" fill="#292A2E"/>
<path d="M107.937 47.7496C107.725 47.7496 107.521 47.6641 107.371 47.5121C107.22 47.3601 107.136 47.1539 107.136 46.9388V31.9238C107.134 30.3031 106.497 28.7493 105.364 27.6032C104.232 26.4571 102.696 25.8124 101.095 25.8104H86.2511C86.1442 25.813 86.0379 25.7939 85.9384 25.7543C85.8389 25.7147 85.7483 25.6554 85.6718 25.5799C85.5953 25.5043 85.5345 25.414 85.493 25.3144C85.4515 25.2147 85.4302 25.1076 85.4302 24.9994C85.4302 24.8913 85.4515 24.7842 85.493 24.6845C85.5345 24.5848 85.5953 24.4945 85.6718 24.419C85.7483 24.3434 85.8389 24.2841 85.9384 24.2445C86.0379 24.2049 86.1442 24.1859 86.2511 24.1885H101.095C103.121 24.1908 105.064 25.0066 106.497 26.4567C107.93 27.9069 108.736 29.873 108.738 31.9238V46.9388C108.738 47.1538 108.654 47.36 108.504 47.5121C108.354 47.6641 108.15 47.7496 107.937 47.7496Z" fill="#292A2E"/>
<path d="M101.095 109.42H86.2511C86.1442 109.423 86.0379 109.404 85.9384 109.364C85.8389 109.325 85.7483 109.265 85.6718 109.19C85.5953 109.114 85.5345 109.024 85.493 108.924C85.4515 108.824 85.4302 108.717 85.4302 108.609C85.4302 108.501 85.4515 108.394 85.493 108.294C85.5345 108.195 85.5953 108.104 85.6718 108.029C85.7483 107.953 85.8389 107.894 85.9384 107.854C86.0379 107.815 86.1442 107.796 86.2511 107.798H101.095C102.696 107.796 104.232 107.151 105.364 106.005C106.497 104.859 107.134 103.306 107.136 101.685V86.6703C107.133 86.5621 107.152 86.4546 107.191 86.3539C107.23 86.2532 107.289 86.1615 107.363 86.0841C107.438 86.0067 107.527 85.9452 107.626 85.9032C107.724 85.8612 107.83 85.8396 107.937 85.8396C108.044 85.8396 108.15 85.8612 108.248 85.9032C108.347 85.9452 108.436 86.0067 108.511 86.0841C108.585 86.1615 108.644 86.2532 108.683 86.3539C108.722 86.4546 108.741 86.5621 108.738 86.6703V101.685C108.736 103.736 107.93 105.702 106.497 107.152C105.064 108.602 103.121 109.418 101.095 109.42Z" fill="#292A2E"/>
<path d="M58.9115 94.6727C58.7336 94.6726 58.5609 94.6126 58.4204 94.5022C58.2798 94.3918 58.1796 94.2373 58.1355 94.0629C58.0913 93.8885 58.1057 93.7042 58.1764 93.5391C58.2471 93.3739 58.3701 93.2372 58.526 93.1505C67.3159 88.2749 63.5793 78.1084 63.416 77.678C63.3444 77.4784 63.353 77.2584 63.4399 77.0652C63.5269 76.872 63.6852 76.7209 63.8809 76.6445C64.0766 76.5681 64.2942 76.5723 64.4868 76.6563C64.6795 76.7404 64.8319 76.8975 64.9114 77.0939C64.9577 77.2124 69.3251 89.0098 59.2962 94.5729C59.1784 94.6386 59.046 94.6729 58.9115 94.6727Z" fill="#93C3DF"/>
<path d="M63.0841 98.8747C62.9045 98.8746 62.73 98.8135 62.5888 98.7011C62.4476 98.5887 62.3478 98.4315 62.3054 98.2548C62.263 98.0781 62.2805 97.8922 62.3551 97.7268C62.4297 97.5614 62.557 97.4261 62.7166 97.3427C63.1628 97.1085 73.4575 91.5135 70.1018 76.8348C69.6996 75.0747 68.5805 72.8538 66.6476 71.9058C65.2239 71.2066 63.5465 71.3059 61.6632 72.2014C59.1597 73.3924 59.3661 76.3852 59.6049 79.851C59.8942 84.0465 60.2219 88.8018 55.0811 90.5361C51.9244 91.6006 49.9861 90.6297 48.916 89.6265C45.2798 86.2202 45.8514 77.4699 47.445 71.0113C48.4396 67.0902 50.7817 63.6557 54.0516 61.3233C57.3214 58.9909 61.3053 57.9132 65.2892 58.2833C78.7076 59.3713 84.2682 67.235 83.8822 84.5777C83.8818 84.6848 83.86 84.7907 83.8182 84.8891C83.7764 84.9875 83.7154 85.0763 83.6389 85.1503C83.5623 85.2243 83.4719 85.2819 83.3728 85.3196C83.2738 85.3574 83.1682 85.3746 83.0625 85.3701C82.9572 85.3677 82.8535 85.3444 82.7572 85.3015C82.6609 85.2585 82.5739 85.1968 82.5012 85.1198C82.4284 85.0428 82.3714 84.9521 82.3334 84.8528C82.2953 84.7535 82.2769 84.6476 82.2793 84.5411C82.6464 68.055 77.687 60.9154 65.1609 59.9C61.5561 59.5642 57.9509 60.5372 54.9901 62.6448C52.0292 64.7524 49.906 67.8572 49.0002 71.4038C47.0706 79.2211 47.4728 86.0661 50.005 88.436C51.1159 89.4766 52.6095 89.6602 54.5738 88.998C58.5362 87.6608 58.2904 84.0943 58.0063 79.9648C57.7494 76.2442 57.4842 72.3976 60.981 70.734C63.3244 69.6198 65.4655 69.5228 67.3474 70.4474C69.7889 71.6468 71.178 74.345 71.663 76.47C75.3084 92.4156 63.5692 98.7234 63.4503 98.7857C63.3369 98.8441 63.2114 98.8746 63.0841 98.8747Z" fill="#93C3DF"/>
<path d="M75.2613 92.8877C75.1361 92.8876 75.0126 92.8578 74.9008 92.8008C74.7889 92.7437 74.6918 92.661 74.6173 92.5591C74.5427 92.4573 74.4928 92.3392 74.4714 92.2143C74.4501 92.0894 74.458 91.9612 74.4944 91.84C77.5645 81.6434 76.7924 72.9653 72.4301 68.6232C69.7618 65.9681 65.9794 65.2613 61.7777 66.6345C51.2072 70.0891 53.7242 84.8118 53.7524 84.9603C53.7867 85.1702 53.7381 85.3853 53.6171 85.5593C53.4961 85.7333 53.3125 85.8522 53.1057 85.8905C52.8989 85.9288 52.6855 85.8833 52.5115 85.7639C52.3375 85.6445 52.2168 85.4607 52.1755 85.2521C52.1463 85.0901 49.3748 68.9833 61.2848 65.0913C66.0835 63.5232 70.4399 64.3672 73.5539 67.4668C78.3499 72.2393 79.2747 81.5273 76.0273 92.3125C75.9774 92.4788 75.8761 92.6245 75.7381 92.728C75.6002 92.8316 75.4331 92.8876 75.2613 92.8877Z" fill="#93C3DF"/>
<path d="M83.7608 63.373C83.6284 63.3731 83.498 63.34 83.3814 63.2767C83.2648 63.2133 83.1655 63.1217 83.0924 63.01C79.335 57.2788 75.2171 56.5355 69.518 55.507C67.5278 55.1478 65.2719 54.7403 62.8068 54.0766C54.7741 51.9138 48.8177 45.4767 48.5682 45.2032C48.4239 45.0454 48.3474 44.836 48.3556 44.6211C48.3638 44.4062 48.456 44.2034 48.6119 44.0573C48.7679 43.9112 48.9748 43.8339 49.1872 43.8422C49.3996 43.8505 49.6 43.9438 49.7443 44.1016C49.8022 44.1648 55.6451 50.4712 63.2187 52.509C65.619 53.1558 67.8402 53.5563 69.7999 53.9104C75.6609 54.9684 80.2913 55.8039 84.4282 62.1136C84.5082 62.2358 84.5541 62.3776 84.5608 62.524C84.5676 62.6704 84.535 62.816 84.4665 62.9452C84.3981 63.0744 84.2963 63.1824 84.172 63.2577C84.0477 63.333 83.9056 63.3729 83.7608 63.373Z" fill="#93C3DF"/>
<path d="M46.1325 62.4259C45.9378 62.4256 45.7498 62.3536 45.6038 62.2234C45.4577 62.0931 45.3634 61.9135 45.3386 61.7181C45.3138 61.5227 45.3601 61.3249 45.4688 61.1615C45.5776 60.9981 45.7414 60.8803 45.9297 60.8302C47.9811 60.2845 53.2427 58.2786 52.9557 55.587C52.6031 52.2804 46.8179 51.3989 46.7596 51.3905C46.5492 51.3601 46.3594 51.2464 46.2318 51.0744C46.1043 50.9024 46.0494 50.6861 46.0795 50.4732C46.1095 50.2603 46.2218 50.0682 46.3918 49.9391C46.5618 49.8101 46.7755 49.7546 46.9859 49.785C47.2752 49.8262 54.0633 50.8552 54.5489 55.4127C55.0339 59.9591 47.2276 62.1627 46.3361 62.3992C46.2696 62.4168 46.2012 62.4257 46.1325 62.4259Z" fill="#93C3DF"/>
<path d="M49.2134 57.4444C49.1884 57.4444 49.1625 57.4445 49.1375 57.4412L46.3405 57.1756C46.2339 57.1682 46.1298 57.1392 46.0344 57.0904C45.939 57.0416 45.8542 56.974 45.785 56.8916C45.7158 56.8092 45.6635 56.7136 45.6314 56.6104C45.5992 56.5073 45.5878 56.3986 45.5977 56.2909C45.6076 56.1832 45.6388 56.0786 45.6893 55.9833C45.7397 55.8879 45.8086 55.8038 45.8917 55.7358C45.9747 55.6677 46.0704 55.6172 46.1731 55.5871C46.2758 55.5571 46.3834 55.5481 46.4896 55.5607L49.287 55.8263C49.4926 55.8451 49.683 55.9434 49.8187 56.1007C49.9544 56.2581 50.0249 56.4624 50.0154 56.671C50.0059 56.8796 49.9172 57.0765 49.7678 57.2206C49.6184 57.3647 49.4198 57.4449 49.2134 57.4444Z" fill="#93C3DF"/>
<path d="M85.3959 55.9449C85.2771 55.9451 85.1598 55.9185 85.0524 55.8671C84.9451 55.8156 84.8504 55.7406 84.7753 55.6475C81.7149 51.8604 75.329 50.7598 70.1956 49.875C69.6985 49.7895 69.2133 49.7049 68.7399 49.6212C65.3582 49.0615 62.1209 47.8248 59.2173 45.9835C59.0447 45.8603 58.9271 45.673 58.8902 45.4625C58.8534 45.2519 58.9002 45.0352 59.0205 44.8594C59.1408 44.6836 59.3248 44.5631 59.5325 44.5239C59.7403 44.4848 59.9549 44.5303 60.1296 44.6505C62.8481 46.3463 65.8662 47.4915 69.0163 48.0227C69.4856 48.1065 69.9693 48.1894 70.4627 48.2747C75.8576 49.2048 82.5716 50.3621 86.0115 54.619C86.1077 54.7378 86.1685 54.8817 86.187 55.0341C86.2055 55.1864 86.1808 55.341 86.1159 55.4797C86.051 55.6185 85.9484 55.7357 85.8202 55.8178C85.6921 55.8999 85.5435 55.9435 85.3918 55.9435L85.3959 55.9449Z" fill="#93C3DF"/>
<path d="M82.3685 47.6129C82.1932 47.6131 82.0227 47.5549 81.8835 47.4471C79.9978 45.9952 77.8437 45.7512 75.1153 45.4426C73.0848 45.2521 71.0704 44.9148 69.0876 44.4333C68.9856 44.4071 68.8896 44.3609 68.8053 44.2972C68.7209 44.2336 68.6498 44.1537 68.5959 44.0623C68.542 43.9708 68.5065 43.8695 68.4913 43.7641C68.4761 43.6587 68.4816 43.5513 68.5074 43.4481C68.5333 43.3448 68.5789 43.2478 68.6419 43.1624C68.7048 43.077 68.7837 43.005 68.8741 42.9505C68.9645 42.896 69.0646 42.86 69.1687 42.8447C69.2729 42.8293 69.379 42.8348 69.481 42.861C71.3942 43.3231 73.3376 43.6465 75.2962 43.8286C78.1525 44.1518 80.619 44.4309 82.8564 46.1545C82.9898 46.2573 83.088 46.3999 83.1372 46.5622C83.1863 46.7245 83.1839 46.8983 83.1303 47.0591C83.0767 47.2199 82.9746 47.3597 82.8383 47.4587C82.7021 47.5578 82.5386 47.611 82.3708 47.6111L82.3685 47.6129Z" fill="#93C3DF"/>
<path d="M57.2573 44.2436C57.1324 44.2436 57.0092 44.2139 56.8977 44.1569C56.7533 44.0834 53.3463 42.3214 52.334 39.5338C52.2953 39.4333 52.2768 39.326 52.2796 39.2181C52.2823 39.1103 52.3063 39.0041 52.3501 38.9058C52.394 38.8074 52.4567 38.7189 52.5347 38.6454C52.6128 38.5719 52.7045 38.5149 52.8046 38.4777C52.9047 38.4405 53.0111 38.4239 53.1175 38.4288C53.224 38.4337 53.3285 38.4601 53.4248 38.5064C53.5211 38.5526 53.6073 38.6179 53.6784 38.6983C53.7495 38.7787 53.804 38.8726 53.8388 38.9746C54.6307 41.1571 57.5878 42.6933 57.6193 42.7088C57.78 42.7912 57.9086 42.926 57.9844 43.0914C58.0601 43.2569 58.0786 43.4433 58.0367 43.6207C57.9949 43.798 57.8952 43.9559 57.7538 44.069C57.6124 44.182 57.4375 44.2435 57.2573 44.2436Z" fill="#93C3DF"/>
<path d="M66.4481 43.2402C66.3946 43.2402 66.3413 43.2348 66.2888 43.2242C62.2366 42.3999 57.2971 37.5956 57.0888 37.3914C56.9416 37.2405 56.8585 37.0374 56.8574 36.8253C56.8564 36.6133 56.9374 36.4093 57.0831 36.257C57.2289 36.1046 57.4278 36.0161 57.6373 36.0103C57.8467 36.0045 58.0501 36.082 58.2038 36.2261C58.2501 36.2729 63.0137 40.904 66.605 41.6337C66.7998 41.6734 66.9732 41.7849 67.0914 41.9466C67.2096 42.1083 67.2642 42.3086 67.2447 42.5088C67.2251 42.7089 67.1328 42.8946 66.9856 43.0297C66.8384 43.1649 66.6468 43.2399 66.4481 43.2402Z" fill="#93C3DF"/>
<path d="M77.2869 40.9116C68.9649 40.9116 64.9289 36.7114 64.7562 36.5273C64.6124 36.371 64.5354 36.1635 64.5419 35.95C64.5483 35.7365 64.6377 35.5341 64.7907 35.3869C64.9437 35.2397 65.1478 35.1595 65.3589 35.1637C65.57 35.1679 65.7709 35.2562 65.918 35.4094C65.9777 35.4726 69.9489 39.5309 78.0186 39.278C78.2291 39.2748 78.4324 39.3555 78.5845 39.5026C78.7367 39.6498 78.8255 39.8516 78.8319 40.0645C78.8383 40.2774 78.7617 40.4843 78.6186 40.6405C78.4755 40.7967 78.2775 40.8897 78.0673 40.8994C77.8039 40.9074 77.5428 40.9116 77.2869 40.9116Z" fill="#93C3DF"/>
</svg>
