<svg width="149" height="174" viewBox="0 0 149 174" fill="none" xmlns="http://www.w3.org/2000/svg">
<path d="M141.492 24.5015C117.274 24.5417 93.7046 16.5859 74.3604 1.84155C55.0162 16.5863 31.446 24.5422 7.22778 24.5015C5.23754 24.5015 3.25146 24.4519 1.2876 24.3409V66.9457C1.31213 105.243 16.3764 140.529 49.4412 159.153L74.3591 173.149L99.2773 159.154C132.343 140.529 147.406 105.244 147.43 66.9462V24.3395C145.467 24.4505 143.479 24.5015 141.492 24.5015Z" fill="white"/>
<path d="M74.359 173.951L49.1038 159.766C33.0837 150.742 20.7192 137.612 12.3538 120.74C4.67281 105.25 0.60671 86.6474 0.59375 66.9447V23.5965L1.32689 23.6378C3.19633 23.7436 5.18194 23.7975 7.22819 23.7975C31.3012 23.8743 54.7355 15.9642 73.942 1.27849L74.3585 0.960938L74.7751 1.27849C93.9824 15.9651 117.418 23.8758 141.492 23.7989C143.539 23.7989 145.524 23.745 147.393 23.6392L148.126 23.5979V66.9456C148.114 86.6493 144.048 105.251 136.367 120.742C128.001 137.614 115.636 150.744 99.6166 159.767L74.359 173.951ZM1.98182 25.0794V66.9442C2.00821 108.059 19.4311 141.444 49.7786 158.538L74.359 172.344L98.9408 158.537C129.289 141.442 146.71 108.059 146.736 66.9437V25.0794C145.059 25.1608 143.298 25.2025 141.491 25.2025C117.295 25.28 93.731 17.3877 74.359 2.71774C54.9873 17.3881 31.4237 25.2809 7.22773 25.2039C5.42078 25.2039 3.66011 25.1608 1.98182 25.0794Z" fill="#292A2E"/>
<path d="M91.9332 57.1209V73.6117C91.9332 74.2712 91.6743 74.9038 91.2134 75.3702C90.7525 75.8366 90.1273 76.0986 89.4755 76.0986C88.8237 76.0986 88.1986 75.8366 87.7377 75.3702C87.2768 74.9038 87.0178 74.2712 87.0178 73.6117V57.1209C87.0178 50.7185 81.3387 45.5057 74.359 45.5057C67.3792 45.5057 61.7001 50.7185 61.7001 57.1209V74.8294C61.7001 75.4889 61.4412 76.1215 60.9803 76.5879C60.5193 77.0543 59.8942 77.3163 59.2424 77.3163C58.5906 77.3163 57.9654 77.0543 57.5045 76.5879C57.0436 76.1215 56.7847 75.4889 56.7847 74.8294V57.1209C56.7847 47.9739 64.667 40.5317 74.359 40.5317C84.051 40.5317 91.9332 47.9739 91.9332 57.1209Z" fill="#292A2E"/>
<path d="M91.9332 73.6117C91.9332 74.2712 91.6743 74.9038 91.2134 75.3702C90.7525 75.8366 90.1273 76.0986 89.4755 76.0986C88.8237 76.0986 88.1986 75.8366 87.7377 75.3702C87.2768 74.9038 87.0178 74.2712 87.0178 73.6117V57.1209C87.0178 50.7185 81.3387 45.5057 74.359 45.5057C67.3792 45.5057 61.7001 50.7185 61.7001 57.1209V74.8294C61.7001 75.4889 61.4412 76.1215 60.9803 76.5879C60.5193 77.0543 59.8942 77.3163 59.2424 77.3163C58.5906 77.3163 57.9654 77.0543 57.5045 76.5879C57.0436 76.1215 56.7847 75.4889 56.7847 74.8294V57.1209C56.7847 47.9739 64.667 40.5317 74.359 40.5317C84.051 40.5317 91.9332 47.9739 91.9332 57.1209V73.6117Z" fill="#292A2E"/>
<path d="M97.4183 71.7659H51.2998C48.6104 71.7659 46.4302 73.972 46.4302 76.6934V120.651C46.4302 123.372 48.6104 125.578 51.2998 125.578H97.4183C100.108 125.578 102.288 123.372 102.288 120.651V76.6934C102.288 73.972 100.108 71.7659 97.4183 71.7659Z" fill="#2EBD89"/>
<path d="M69.7681 94.3205C69.7683 95.1928 70.0109 96.0474 70.4682 96.7868C70.9256 97.5262 71.5792 98.1206 72.3545 98.502V105.641C72.3625 106.173 72.5772 106.681 72.9523 107.055C73.3274 107.429 73.8328 107.639 74.3593 107.639C74.8858 107.639 75.3911 107.429 75.7662 107.055C76.1413 106.681 76.3561 106.173 76.3641 105.641V98.5015C77.1019 98.1393 77.7304 97.5839 78.1843 96.8928C78.6382 96.2017 78.9009 95.4003 78.9452 94.5717C78.9894 93.7431 78.8136 92.9177 78.436 92.1811C78.0584 91.4445 77.4927 90.8237 76.7978 90.3832C76.1029 89.9427 75.3041 89.6985 74.4844 89.676C73.6646 89.6535 72.8539 89.8536 72.1365 90.2554C71.419 90.6572 70.8209 91.2461 70.4044 91.9609C69.9879 92.6756 69.7682 93.4907 69.7681 94.3205Z" fill="#262626"/>
</svg>
